# Blender 3.6.2
# www.blender.org
mtllib Cajero Hibrido - Equinsa.mtl
o Cajero_Equinsa_
v -0.127393 0.000000 -0.680000
v -0.150393 3.043232 -0.535160
v -0.127393 0.000000 0.680000
v -0.150393 3.043232 0.535160
v -1.000000 0.000000 -0.680000
v -1.000000 3.190389 -0.680000
v -1.000000 0.000000 0.680000
v -1.000000 3.190389 0.680000
v -0.127393 0.181622 -0.680000
v -0.127393 1.114809 -0.680000
v -0.127393 1.427858 -0.680000
v -0.127393 2.101430 -0.680000
v -0.150393 2.476187 -0.535160
v -0.150393 2.476187 0.535160
v -0.127393 2.101430 0.680000
v -0.127393 1.427858 0.680000
v -0.127393 1.114809 0.680000
v -0.127393 0.181622 0.680000
v -1.000000 2.337351 0.680000
v -1.000000 2.101430 0.680000
v -1.000000 1.427858 0.680000
v -1.000000 1.114809 0.680000
v -1.000000 0.181622 0.680000
v -1.000000 2.337351 -0.680000
v -1.000000 2.101430 -0.680000
v -1.000000 1.427858 -0.680000
v -1.000000 1.114809 -0.680000
v -1.000000 0.181622 -0.680000
v -0.127393 2.337351 -0.680000
v -0.127393 3.190389 -0.680000
v -0.127393 3.190389 0.680000
v -0.127393 2.337351 0.680000
v -0.073516 2.337433 -0.680000
v -0.073516 3.190470 -0.680000
v -0.073516 3.190470 0.680000
v -0.073516 0.181703 -0.680000
v 0.009786 1.114890 -0.680000
v -0.073516 1.427940 -0.680000
v -0.073516 2.101511 -0.680000
v -0.073516 2.337433 0.680000
v -0.073516 2.101511 0.680000
v -0.073516 1.427940 0.680000
v 0.009786 1.114890 0.680000
v -0.073516 0.181703 0.680000
v -0.096516 2.476269 -0.535160
v -0.096516 3.043313 -0.535160
v -0.096516 3.043313 0.535160
v -0.096516 2.476269 0.535160
v -0.127393 0.000000 0.226667
v -0.127393 0.000000 -0.226667
v -0.127393 3.190389 -0.226667
v -0.127393 3.190389 0.226667
v -1.000000 0.000000 -0.226667
v -1.000000 0.000000 0.226667
v -1.000000 3.190389 0.226667
v -1.000000 3.190389 -0.226667
v -1.000000 0.181622 0.226667
v -1.000000 0.181622 -0.226667
v -1.000000 1.114809 0.226667
v -1.000000 1.114809 -0.226667
v -1.000000 1.427858 0.226667
v -1.000000 1.427858 -0.226667
v -1.000000 2.101430 0.226667
v -1.000000 2.101430 -0.226667
v -1.000000 2.337351 0.226667
v -1.000000 2.337351 -0.226667
v -0.127393 0.181622 -0.226667
v -0.127393 0.181622 0.226667
v -0.127393 1.114809 -0.502607
v -0.127393 1.114809 0.483173
v -0.127393 1.427858 -0.502607
v -0.127393 1.427858 0.483173
v -0.127393 2.101430 -0.226667
v -0.127393 2.101430 0.226667
v -0.127393 2.337351 -0.226667
v -0.127393 2.337351 0.226667
v -0.150393 3.043232 -0.178387
v -0.150393 3.043232 0.178387
v -0.150393 2.476187 -0.178387
v -0.150393 2.476187 0.178387
v -0.073516 3.190470 -0.226667
v -0.073516 3.190470 0.226667
v -0.073516 0.181703 -0.226667
v -0.073516 0.181703 0.226667
v 0.009786 1.114890 -0.226667
v 0.009786 1.114890 0.226667
v -0.073516 1.427940 0.144977
v -0.073516 1.427940 0.370263
v -0.073516 2.101511 0.144977
v -0.073516 2.101511 0.370263
v -0.073516 2.337433 -0.226667
v -0.073516 2.337433 0.226667
v -0.096516 3.043313 -0.178387
v -0.096516 3.043313 0.178387
v -0.096516 2.476269 -0.178387
v -0.096516 2.476269 0.178387
v -0.127393 1.812756 -0.680000
v -0.127393 1.812756 0.680000
v -1.000000 1.812756 0.680000
v -1.000000 1.812756 -0.680000
v -0.073516 1.812838 -0.680000
v -0.073516 1.812838 0.680000
v -0.073516 1.812838 0.144977
v -0.073516 1.812838 0.370263
v -1.000000 1.812756 0.226667
v -1.000000 1.812756 -0.226667
v -0.289330 1.114809 -0.502607
v -0.289330 1.114809 0.483173
v -0.319485 1.427858 -0.502607
v -0.319485 1.427858 0.483173
v -0.207500 2.029811 0.167350
v -0.207500 2.029811 0.347889
v -0.090428 1.841506 0.167350
v -0.090428 1.841506 0.347889
vn 1.0000 -0.0000 -0.0000
vn -0.0000 -0.0000 1.0000
vn -1.0000 -0.0000 -0.0000
vn -0.0000 -0.0000 -1.0000
vn -0.0000 -1.0000 -0.0000
vn -0.0000 1.0000 -0.0000
vn -0.0015 1.0000 -0.0000
vn 0.0015 -1.0000 -0.0000
vn 0.9960 -0.0889 -0.0000
vn 0.9876 -0.0000 0.1568
vn 0.9880 -0.1544 -0.0000
vn 0.9876 -0.0000 -0.1568
vn 0.9866 0.1634 -0.0000
vn -0.0006 1.0000 -0.0000
vn 0.8613 0.5081 -0.0000
vn 0.8492 0.5280 -0.0000
vn 0.9954 0.0959 -0.0000
vn 0.2665 0.0654 0.9616
vn 0.4718 -0.8817 -0.0000
vn 0.2665 0.0654 -0.9616
vt 0.582369 0.157792
vt 0.610813 0.157792
vt 0.610813 0.223375
vt 0.582369 0.223375
vt 0.568182 0.250000
vt 0.625000 0.250000
vt 0.625000 0.500000
vt 0.568182 0.500000
vt 0.568182 0.666667
vt 0.625000 0.666667
vt 0.625000 0.750000
vt 0.568182 0.750000
vt 0.625000 1.000000
vt 0.568182 1.000000
vt 0.125000 0.666667
vt 0.375000 0.666667
vt 0.375000 0.750000
vt 0.125000 0.750000
vt 0.875000 0.666667
vt 0.875000 0.750000
vt 0.401515 0.750000
vt 0.401515 1.000000
vt 0.375000 1.000000
vt 0.443182 0.750000
vt 0.443182 1.000000
vt 0.484848 0.750000
vt 0.484848 1.000000
vt 0.508658 0.750000
vt 0.526515 0.750000
vt 0.526515 1.000000
vt 0.508658 1.000000
vt 0.401515 0.666667
vt 0.443182 0.666667
vt 0.484848 0.666667
vt 0.508658 0.666667
vt 0.526515 0.666667
vt 0.375000 0.250000
vt 0.401515 0.250000
vt 0.401515 0.500000
vt 0.375000 0.500000
vt 0.443182 0.250000
vt 0.443182 0.500000
vt 0.484848 0.250000
vt 0.484848 0.500000
vt 0.508658 0.250000
vt 0.526515 0.250000
vt 0.526515 0.500000
vt 0.508658 0.500000
vt 0.375000 0.166667
vt 0.401515 0.166667
vt 0.443182 0.166667
vt 0.484848 0.166667
vt 0.875000 0.583333
vt 0.875000 0.500000
vt 0.526515 0.166667
vt 0.568182 0.166667
vt 0.610813 0.092208
vt 0.610813 0.026625
vt 0.582369 0.026625
vt 0.508658 1.000000
vt 0.443182 0.166667
vt 0.508658 0.166667
vt 0.508658 0.250000
vt 0.568182 0.000000
vt 0.625000 0.000000
vt 0.625000 0.083333
vt 0.582369 0.157792
vt 0.401515 0.083333
vt 0.401515 0.000000
vt 0.401515 0.083333
vt 0.484849 0.083333
vt 0.484848 0.000000
vt 0.484848 0.083333
vt 0.568182 0.083333
vt 0.526515 0.000000
vt 0.526515 0.083333
vt 0.484848 0.166667
vt 0.443182 0.000000
vt 0.443182 0.083333
vt 0.443182 0.083333
vt 0.582369 0.092208
vt 0.582369 0.092208
vt 0.625000 0.166667
vt 0.508658 0.000000
vt 0.508658 0.083333
vt 0.375000 0.000000
vt 0.375000 0.083333
vt 0.568182 0.583333
vt 0.526515 0.583333
vt 0.508658 0.583333
vt 0.484848 0.583333
vt 0.443182 0.583333
vt 0.401515 0.583333
vt 0.375000 0.583333
vt 0.625000 0.583333
vt 0.125000 0.500000
vt 0.125000 0.583333
s 0
f 80/1/1 78/2/1 4/3/1 14/4/1
f 32/5/2 31/6/2 8/7/2 19/8/2
f 66/9/3 56/10/3 6/11/3 24/12/3
f 24/12/4 6/11/4 30/13/4 29/14/4
f 50/15/5 53/16/5 5/17/5 1/18/5
f 56/10/6 51/19/6 30/20/6 6/11/6
f 5/17/4 28/21/4 9/22/4 1/23/4
f 28/21/4 27/24/4 10/25/4 9/22/4
f 27/24/4 26/26/4 11/27/4 10/25/4
f 100/28/4 25/29/4 12/30/4 97/31/4
f 25/29/4 24/12/4 29/14/4 12/30/4
f 53/16/3 58/32/3 28/21/3 5/17/3
f 58/32/3 60/33/3 27/24/3 28/21/3
f 60/33/3 62/34/3 26/26/3 27/24/3
f 106/35/3 64/36/3 25/29/3 100/28/3
f 64/36/3 66/9/3 24/12/3 25/29/3
f 3/37/2 18/38/2 23/39/2 7/40/2
f 18/38/2 17/41/2 22/42/2 23/39/2
f 17/41/2 16/43/2 21/44/2 22/42/2
f 98/45/2 15/46/2 20/47/2 99/48/2
f 15/46/2 32/5/2 19/8/2 20/47/2
f 49/49/1 68/50/1 18/38/1 3/37/1
f 14/4/4 4/3/4 47/3/4 48/4/4
f 70/51/1 72/52/1 16/43/1 17/41/1
f 52/53/7 31/54/7 35/54/7 82/53/7
f 74/55/1 76/56/1 32/5/1 15/46/1
f 77/57/8 2/58/8 46/58/8 93/57/8
f 29/14/4 30/13/4 34/13/4 33/14/4
f 2/58/2 13/59/2 45/59/2 46/58/2
f 97/31/4 12/30/4 39/30/4 101/60/4
f 84/50/9 86/61/9 43/41/9 44/38/9
f 104/62/1 90/55/1 41/46/1 102/63/1
f 46/58/10 45/59/10 33/64/10 34/65/10
f 93/57/11 46/58/11 34/65/11 81/66/11
f 48/4/12 47/3/12 35/6/12 40/5/12
f 96/67/13 48/4/13 40/5/13 92/56/13
f 31/6/2 32/5/2 40/5/2 35/6/2
f 67/68/8 9/69/8 36/69/8 83/70/8
f 80/1/7 14/4/7 48/4/7 96/67/7
f 70/51/14 17/41/14 43/41/14 86/61/14
f 98/45/2 16/43/2 42/43/2 102/63/2
f 71/71/8 11/72/8 38/72/8 87/73/8
f 9/22/4 10/25/4 37/25/4 36/22/4
f 74/55/7 15/46/7 41/46/7 90/55/7
f 17/41/2 18/38/2 44/38/2 43/41/2
f 75/74/8 29/64/8 33/64/8 91/74/8
f 32/5/8 76/56/8 92/56/8 40/5/8
f 76/56/8 75/74/8 91/74/8 92/56/8
f 12/75/7 73/76/7 89/76/7 39/75/7
f 73/76/7 74/55/7 90/55/7 89/76/7
f 16/43/8 72/52/8 88/77/8 42/43/8
f 72/52/8 71/71/8 87/73/8 88/77/8
f 10/78/14 69/79/14 85/80/14 37/78/14
f 69/79/14 70/51/14 86/61/14 85/80/14
f 13/59/7 79/81/7 95/82/7 45/59/7
f 79/81/7 80/1/7 96/67/7 95/82/7
f 18/38/8 68/50/8 84/50/8 44/38/8
f 68/50/8 67/68/8 83/70/8 84/50/8
f 45/59/13 95/82/13 91/74/13 33/64/13
f 95/82/13 96/67/13 92/56/13 91/74/13
f 47/3/11 94/2/11 82/83/11 35/6/11
f 94/2/11 93/57/11 81/66/11 82/83/11
f 101/84/1 39/75/1 89/76/1 103/85/1
f 72/52/4 70/51/4 108/51/4 110/52/4
f 36/69/9 37/78/9 85/80/9 83/70/9
f 83/70/9 85/80/9 86/61/9 84/50/9
f 4/3/8 78/2/8 94/2/8 47/3/8
f 78/2/8 77/57/8 93/57/8 94/2/8
f 12/75/1 29/64/1 75/74/1 73/76/1
f 73/76/1 75/74/1 76/56/1 74/55/1
f 30/20/7 51/19/7 81/19/7 34/20/7
f 51/19/7 52/53/7 82/53/7 81/19/7
f 10/78/1 11/72/1 71/71/1 69/79/1
f 104/62/15 103/85/15 113/85/15 114/62/15
f 1/86/1 9/69/1 67/68/1 50/87/1
f 50/87/1 67/68/1 68/50/1 49/49/1
f 20/47/3 19/8/3 65/88/3 63/89/3
f 63/89/3 65/88/3 66/9/3 64/36/3
f 99/48/3 20/47/3 63/89/3 105/90/3
f 105/90/3 63/89/3 64/36/3 106/35/3
f 22/42/3 21/44/3 61/91/3 59/92/3
f 59/92/3 61/91/3 62/34/3 60/33/3
f 23/39/3 22/42/3 59/92/3 57/93/3
f 57/93/3 59/92/3 60/33/3 58/32/3
f 7/40/3 23/39/3 57/93/3 54/94/3
f 54/94/3 57/93/3 58/32/3 53/16/3
f 8/7/6 31/54/6 52/53/6 55/95/6
f 55/95/6 52/53/6 51/19/6 56/10/6
f 3/96/5 7/40/5 54/94/5 49/97/5
f 49/97/5 54/94/5 53/16/5 50/15/5
f 19/8/3 8/7/3 55/95/3 65/88/3
f 65/88/3 55/95/3 56/10/3 66/9/3
f 13/59/1 2/58/1 77/57/1 79/81/1
f 79/81/1 77/57/1 78/2/1 80/1/1
f 61/91/3 105/90/3 106/35/3 62/34/3
f 21/44/3 99/48/3 105/90/3 61/91/3
f 87/73/1 103/85/1 104/62/1 88/77/1
f 38/72/1 101/84/1 103/85/1 87/73/1
f 15/46/2 98/45/2 102/63/2 41/46/2
f 88/77/1 104/62/1 102/63/1 42/43/1
f 11/27/4 97/31/4 101/60/4 38/27/4
f 16/43/2 98/45/2 99/48/2 21/44/2
f 62/34/3 106/35/3 100/28/3 26/26/3
f 26/26/4 100/28/4 97/31/4 11/27/4
f 113/85/16 111/76/16 112/55/16 114/62/16
f 107/79/17 109/71/17 110/52/17 108/51/17
f 103/85/18 89/76/18 111/76/18 113/85/18
f 71/71/5 72/52/5 110/52/5 109/71/5
f 70/51/6 69/79/6 107/79/6 108/51/6
f 89/76/19 90/55/19 112/55/19 111/76/19
f 69/79/2 71/71/2 109/71/2 107/79/2
f 90/55/20 104/62/20 114/62/20 112/55/20
