{
  "accessors": [
    {
      "bufferView": 2,
      "componentType": 5126,
      "count": 23346,
      "max": [
        20.929651260375977,
        7.555396556854248,
        11.732050895690918
      ],
      "min": [
        -7.350332260131836,
        -35.17757034301758,
        -21.19991111755371
      ],
      "type": "VEC3"
    },
    {
      "bufferView": 2,
      "byteOffset": 280152,
      "componentType": 5126,
      "count": 23346,
      "max": [
        0.999894380569458,
        0.9999826550483704,
        0.9999989867210388
      ],
      "min": [
        -0.9999268651008606,
        -0.9999936819076538,
        -0.999964714050293
      ],
      "type": "VEC3"
    },
    {
      "bufferView": 1,
      "componentType": 5126,
      "count": 23346,
      "max": [
        0.9989237785339355,
        0.999500036239624
      ],
      "min": [
        0.0005000000237487257,
        0.0005000000237487257
      ],
      "type": "VEC2"
    },
    {
      "bufferView": 0,
      "componentType": 5125,
      "count": 123396,
      "type": "SCALAR"
    }
  ],
  "asset": {
    "extras": {
      "author": "code.narcea (https://sketchfab.com/nadiakim)",
      "license": "CC-BY-4.0 (http://creativecommons.org/licenses/by/4.0/)",
      "source": "https://sketchfab.com/3d-models/piranha-plant-b556a1bb686a40be93ad6801b4ab10b5",
      "title": "Piranha Plant"
    },
    "generator": "Sketchfab-12.68.0",
    "version": "2.0"
  },
  "bufferViews": [
    {
      "buffer": 0,
      "byteLength": 493584,
      "name": "floatBufferViews",
      "target": 34963
    },
    {
      "buffer": 0,
      "byteLength": 186768,
      "byteOffset": 493584,
      "byteStride": 8,
      "name": "floatBufferViews",
      "target": 34962
    },
    {
      "buffer": 0,
      "byteLength": 560304,
      "byteOffset": 680352,
      "byteStride": 12,
      "name": "floatBufferViews",
      "target": 34962
    }
  ],
  "buffers": [
    {
      "byteLength": 1240656,
      "uri": "scene.bin"
    }
  ],
  "images": [
    {
      "uri": "textures/Scene_-_Root_baseColor.png"
    },
    {
      "uri": "textures/Scene_-_Root_metallicRoughness.png"
    },
    {
      "uri": "textures/Scene_-_Root_emissive.png"
    }
  ],
  "materials": [
    {
      "doubleSided": true,
      "emissiveFactor": [
        1.0,
        1.0,
        1.0
      ],
      "emissiveTexture": {
        "index": 2
      },
      "name": "Scene_-_Root",
      "pbrMetallicRoughness": {
        "baseColorTexture": {
          "index": 0
        },
        "metallicRoughnessTexture": {
          "index": 1
        }
      }
    }
  ],
  "meshes": [
    {
      "name": "cabeza001__0",
      "primitives": [
        {
          "attributes": {
            "NORMAL": 1,
            "POSITION": 0,
            "TEXCOORD_0": 2
          },
          "indices": 3,
          "material": 0,
          "mode": 4
        }
      ]
    }
  ],
  "nodes": [
    {
      "children": [
        1
      ],
      "matrix": [
        1.0,
        0.0,
        0.0,
        0.0,
        0.0,
        2.220446049250313e-16,
        -1.0,
        0.0,
        0.0,
        1.0,
        2.220446049250313e-16,
        0.0,
        0.0,
        0.0,
        0.0,
        1.0
      ],
      "name": "Sketchfab_model"
    },
    {
      "children": [
        2
      ],
      "matrix": [
        1.0,
        0.0,
        0.0,
        0.0,
        0.0,
        0.0,
        1.0,
        0.0,
        0.0,
        -1.0,
        0.0,
        0.0,
        0.0,
        0.0,
        0.0,
        1.0
      ],
      "name": "f88c12e507f347989f958b59b81f35f0.fbx"
    },
    {
      "children": [
        3
      ],
      "name": "RootNode"
    },
    {
      "children": [
        4
      ],
      "matrix": [
        0.8668633766661844,
        0.03436842214899536,
        -0.49735972671084794,
        0.0,
        -0.10764027574558352,
        0.9869932345706065,
        -0.11940655739642822,
        0.0,
        0.48678687043953395,
        0.15704510966865606,
        0.8592877145036139,
        0.0,
        -105.03104400634766,
        39.55731201171875,
        1.0057411193847656,
        1.0
      ],
      "name": "cabeza001"
    },
    {
      "children": [
        5
      ],
      "matrix": [
        0.9238795197719412,
        -0.3826834631205893,
        6.037095715300614e-09,
        0.0,
        0.3826834631205893,
        0.9238795197719412,
        3.0073961034524415e-09,
        0.0,
        -6.7284298461137215e-09,
        -4.681749722999385e-10,
        1.0,
        0.0,
        1.11083443243842e-06,
        -3.81661266146693e-06,
        -0.128530502319336,
        1.0
      ],
      "name": "Object_4"
    },
    {
      "mesh": 0,
      "name": "cabeza001__0"
    }
  ],
  "samplers": [
    {
      "magFilter": 9729,
      "minFilter": 9987,
      "wrapS": 10497,
      "wrapT": 10497
    }
  ],
  "scene": 0,
  "scenes": [
    {
      "name": "Sketchfab_Scene",
      "nodes": [
        0
      ]
    }
  ],
  "textures": [
    {
      "sampler": 0,
      "source": 0
    },
    {
      "sampler": 0,
      "source": 1
    },
    {
      "sampler": 0,
      "source": 2
    }
  ]
}
